Coordinates
version=1
nRows=13
nColumns=63
inDegrees=yes

Units are S.I. units (second, meters, Newtons, ...)
If the header above contains a line with 'inDegrees', this indicates whether rotational values are in degrees (yes) or radians (no).

endheader
time	pelvis_tilt	pelvis_list	pelvis_rotation	pelvis_tx	pelvis_ty	pelvis_tz	hip_flexion_r	hip_adduction_r	hip_rotation_r	knee_angle_r	knee_angle_r_beta	ankle_angle_r	subtalar_angle_r	mtp_angle_r	hip_flexion_l	hip_adduction_l	hip_rotation_l	knee_angle_l	knee_angle_l_beta	ankle_angle_l	subtalar_angle_l	mtp_angle_l	L5_S1_Flex_Ext	L5_S1_Lat_Bending	L5_S1_axial_rotation	L4_L5_Flex_Ext	L4_L5_Lat_Bending	L4_L5_axial_rotation	L3_L4_Flex_Ext	L3_L4_Lat_Bending	L3_L4_axial_rotation	L2_L3_Flex_Ext	L2_L3_Lat_Bending	L2_L3_axial_rotation	L1_L2_Flex_Ext	L1_L2_Lat_Bending	L1_L2_axial_rotation	L1_T12_Flex_Ext	L1_T12_Lat_Bending	L1_T12_axial_rotation	Abs_r3	Abs_r2	Abs_r1	Abs_t1	Abs_t2	neck_flexion	neck_bending	neck_rotation	arm_flex_r	arm_add_r	arm_rot_r	elbow_flex_r	pro_sup_r	wrist_flex_r	wrist_dev_r	arm_flex_l	arm_add_l	arm_rot_l	elbow_flex_l	pro_sup_l	wrist_flex_l	wrist_dev_l
2.379310	8.129440	-7.902338	81.596477	0.265435	0.957882	0.553070	2.999778	4.743701	4.586963	15.143091	0.264297	43.122019	12.111556	0.000000	2.443709	-6.431162	-11.989403	16.400956	0.286251	43.691316	5.174856	0.000000	0.010913	0.916719	0.006758	0.020266	1.219236	0.007180	0.017928	2.228911	0.007180	0.012472	2.228911	0.005913	0.010133	1.869373	0.005491	0.006235	1.419998	0.005068	0.077948	10.370109	0.037584	0.000000	0.000000	24.156825	-7.648455	3.501496	8.255561	-16.416538	115.417508	12.701744	9.645181	-5.086126	-15.484424	2.915652	-13.418528	51.921127	26.261043	86.710885	-7.284890	5.709563
2.396552	8.149728	-7.912696	81.563917	0.265416	0.957878	0.553082	3.012089	4.773075	4.705191	15.164496	0.264670	43.122343	12.032449	0.000000	2.450665	-6.444737	-11.928746	16.407363	0.286363	43.666426	5.006700	0.000000	0.009816	0.927251	-0.029138	0.018229	1.233244	-0.030959	0.016127	2.254519	-0.030959	0.011219	2.254519	-0.025496	0.009115	1.890851	-0.023675	0.005609	1.436312	-0.021854	0.070115	10.489253	-0.162057	0.000000	0.000000	23.951568	-7.575750	3.278190	8.353073	-16.463256	115.715594	12.712522	9.664535	-5.205826	-15.380406	2.804963	-13.357899	51.707344	26.242835	86.767689	-7.378557	5.643134
2.413793	8.167823	-7.924854	81.533091	0.265425	0.957918	0.553144	3.035121	4.798048	4.769290	15.183406	0.265000	43.134810	11.956689	0.000000	2.461729	-6.467275	-11.941431	16.409145	0.286394	43.662623	4.933044	0.000000	0.006013	0.936608	-0.064788	0.011167	1.245688	-0.068838	0.009879	2.277268	-0.068838	0.006873	2.277268	-0.056690	0.005584	1.909931	-0.052641	0.003436	1.450806	-0.048591	0.042953	10.595096	-0.360334	0.000000	0.000000	23.691556	-7.439065	3.102784	8.466068	-16.503275	115.987523	12.727365	9.698089	-5.348622	-15.280223	2.742565	-13.275872	51.608107	26.121424	86.844360	-7.508579	5.488993
2.431034	8.180954	-7.943285	81.505497	0.265449	0.957995	0.553255	3.074280	4.816696	4.774917	15.199068	0.265274	43.161669	11.880811	0.000000	2.487474	-6.485830	-11.944400	16.406531	0.286348	43.676689	4.877048	0.000000	0.000549	0.944895	-0.100433	0.001019	1.256710	-0.106710	0.000902	2.297418	-0.106710	0.000627	2.297418	-0.087879	0.000510	1.926830	-0.081602	0.000314	1.463643	-0.075325	0.003920	10.688842	-0.558578	0.000000	0.000000	23.392278	-7.251678	3.005863	8.582036	-16.537508	116.147219	12.744543	9.834955	-5.551915	-15.190751	2.742393	-13.168869	51.722491	25.886978	86.745052	-7.728099	5.233303
2.448276	8.183834	-7.959279	81.464766	0.265519	0.958121	0.553396	3.119084	4.822799	4.729459	15.210898	0.265480	43.205470	11.824941	0.000000	2.511654	-6.505386	-12.043490	16.396159	0.286167	43.727759	4.952516	0.000000	-0.006182	0.950945	-0.132073	-0.011481	1.264757	-0.140328	-0.010156	2.312129	-0.140328	-0.007065	2.312129	-0.115564	-0.005741	1.939168	-0.107310	-0.003532	1.473014	-0.099055	-0.044157	10.757284	-0.734553	0.000000	0.000000	23.042807	-7.055471	2.949092	8.705777	-16.544705	116.409100	12.735829	9.871751	-5.746355	-15.099086	2.785322	-13.048770	51.939165	25.578528	86.628466	-7.964639	4.953221
2.465517	8.179627	-7.969731	81.445839	0.265550	0.958281	0.553554	3.166061	4.801778	4.502062	15.225026	0.265727	43.283770	11.924777	0.000000	2.540841	-6.511133	-12.093547	16.379070	0.285869	43.795613	5.021651	0.000000	-0.013240	0.955507	-0.164504	-0.024588	1.270825	-0.174786	-0.021752	2.323220	-0.174786	-0.015132	2.323220	-0.143941	-0.012295	1.948471	-0.133660	-0.007565	1.480081	-0.123378	-0.094572	10.808890	-0.914922	0.000000	0.000000	22.658456	-6.859385	2.942230	8.819075	-16.561279	116.467230	12.755720	10.027205	-5.954079	-15.007711	2.892784	-12.908019	52.383415	25.173755	86.401494	-8.197944	4.639279
2.482759	8.164014	-7.971298	81.399745	0.265636	0.958476	0.553722	3.205253	4.773805	4.309509	15.238148	0.265956	43.360599	11.989831	0.000000	2.554084	-6.516179	-12.259705	16.351530	0.285388	43.895846	5.218949	0.000000	-0.020398	0.957427	-0.187558	-0.037881	1.273378	-0.199281	-0.033512	2.327889	-0.199281	-0.023313	2.327889	-0.164114	-0.018941	1.952386	-0.152391	-0.011655	1.483055	-0.140669	-0.145699	10.830608	-1.043144	0.000000	0.000000	22.236466	-6.680718	2.964330	8.928934	-16.554249	116.631310	12.757473	10.055699	-6.141937	-14.929245	3.040762	-12.767612	52.950814	24.724351	86.149397	-8.380301	4.366148
2.500000	8.132024	-7.960889	81.350899	0.265736	0.958686	0.553893	3.229818	4.728177	4.114027	15.251531	0.266189	43.434016	12.052488	0.000000	2.556624	-6.507153	-12.464774	16.321051	0.284856	44.008568	5.467908	0.000000	-0.027484	0.956092	-0.204287	-0.051040	1.271602	-0.217055	-0.045153	2.324642	-0.217055	-0.031411	2.324642	-0.178751	-0.025521	1.949663	-0.165983	-0.015704	1.480987	-0.153215	-0.196314	10.815504	-1.136184	0.000000	0.000000	21.784137	-6.506347	3.010444	9.024286	-16.543555	116.723635	12.777153	10.099015	-6.326844	-14.873043	3.226226	-12.633525	53.621332	24.249215	85.870769	-8.460222	4.163284
2.517241	8.082570	-7.939856	81.305278	0.265836	0.958896	0.554072	3.238222	4.662303	3.912815	15.267282	0.266464	43.491494	12.125038	0.000000	2.552610	-6.483446	-12.697692	16.293525	0.284376	44.123762	5.755248	0.000000	-0.034298	0.951507	-0.213988	-0.063695	1.265504	-0.227362	-0.056348	2.313494	-0.227362	-0.039199	2.313494	-0.187239	-0.031849	1.940313	-0.173865	-0.019598	1.473885	-0.160491	-0.244988	10.763639	-1.190135	0.000000	0.000000	21.312834	-6.342135	3.068961	9.099339	-16.519365	116.801316	12.790104	10.107349	-6.509808	-14.837098	3.440605	-12.507918	54.334087	23.769693	85.589148	-8.409216	4.055996
2.534483	8.021364	-7.902058	81.265916	0.265919	0.959108	0.554246	3.215438	4.588520	3.774563	15.276952	0.266633	43.517418	12.124324	0.000000	2.534620	-6.448280	-12.952415	16.269370	0.283954	44.236727	6.067329	0.000000	-0.042236	0.944824	-0.213657	-0.078437	1.256616	-0.227011	-0.069390	2.297245	-0.227011	-0.048272	2.297245	-0.186950	-0.039221	1.926685	-0.173596	-0.024134	1.463532	-0.160243	-0.301690	10.688037	-1.188297	0.000000	0.000000	20.853421	-6.182766	3.138270	9.127648	-16.519871	116.487688	12.844339	10.371137	-6.720358	-14.833793	3.736893	-12.389968	55.350465	23.260503	85.179132	-8.280079	3.981321
2.551724	7.940917	-7.853637	81.233892	0.265980	0.959299	0.554404	3.173370	4.497981	3.692821	15.289813	0.266858	43.520530	12.075682	0.000000	2.512129	-6.386873	-13.167004	16.247704	0.283576	44.338082	6.324570	0.000000	-0.050291	0.935216	-0.206600	-0.093395	1.243837	-0.219513	-0.082623	2.273884	-0.219513	-0.057477	2.273884	-0.180775	-0.046700	1.907092	-0.167863	-0.028736	1.448649	-0.154950	-0.359223	10.579348	-1.149048	0.000000	0.000000	20.436493	-6.033148	3.192885	9.132147	-16.506074	116.219908	12.871611	10.529014	-6.888406	-14.880652	4.062215	-12.294734	56.419433	22.790547	84.777593	-8.051361	3.989286
2.568966	7.836611	-7.822089	81.188152	0.266068	0.959438	0.554530	3.146011	4.383565	3.611463	15.312266	0.267249	43.515728	12.080606	0.000000	2.509137	-6.304774	-13.380291	16.227294	0.283220	44.425569	6.569708	0.000000	-0.055073	0.922682	-0.192107	-0.102276	1.227167	-0.204113	-0.090479	2.243409	-0.204113	-0.062943	2.243409	-0.168093	-0.051141	1.881533	-0.156087	-0.031469	1.429235	-0.144080	-0.393379	10.437564	-1.068440	0.000000	0.000000	20.132485	-5.924205	3.219086	9.107753	-16.480183	115.896325	12.878030	10.697438	-7.005682	-14.930544	4.369347	-12.222417	57.377917	22.388377	84.449628	-7.745052	4.068452
2.586207	7.715156	-7.803831	81.144848	0.266190	0.959523	0.554603	3.120464	4.268989	3.653101	15.325009	0.267472	43.486846	11.989894	0.000000	2.525096	-6.217352	-13.633186	16.216146	0.283025	44.518866	6.882458	0.000000	-0.057745	0.908028	-0.179932	-0.107238	1.207677	-0.191178	-0.094869	2.207779	-0.191178	-0.065996	2.207779	-0.157441	-0.053622	1.851651	-0.146195	-0.032995	1.406535	-0.134949	-0.412465	10.271793	-1.000728	0.000000	0.000000	19.976385	-5.824064	3.278076	9.090149	-16.405955	115.989877	12.813194	10.508352	-7.066584	-15.012466	4.611410	-12.179497	58.075592	22.099362	84.233503	-7.374777	4.245006
